<svg xmlns="http://www.w3.org/2000/svg" xmlns:xlink="http://www.w3.org/1999/xlink" width="16506" height="9274"><path fill="#CCB088" transform="scale(42.5419 42.5419)" d="M296.562 94.0738C297.358 94.1007 298.261 94.0954 299.007 94.3974C299.901 94.759 300.623 95.9122 300.928 96.7825C301.137 97.3811 301.129 98.258 300.837 98.8199C300.008 100.416 298.997 100.858 297.375 101.392C296.839 101.342 296.265 101.22 295.75 101.062C294.752 100.757 293.55 99.994 293.073 99.0325C292.591 98.061 292.705 96.8616 293.047 95.875C294.06 94.6887 295.068 94.2868 296.562 94.0738Z"></path><path fill="#CCB088" transform="scale(42.5419 42.5419)" d="M53.8973 201.795C54.757 201.69 55.9906 201.703 56.7775 202.099C57.6973 202.561 58.1064 203.201 58.418 204.154C58.7876 205.285 58.4785 206.712 57.938 207.739C57.5145 208.544 56.4612 208.763 55.6514 209.012C54.7893 209.141 53.7697 209.233 52.9472 208.882C51.4082 208.226 51.0704 206.896 50.4672 205.457C50.6141 204.588 50.8515 203.616 51.3468 202.875C51.8924 202.058 53.0064 202.006 53.8973 201.795Z"></path><path fill="#CCB088" transform="scale(42.5419 42.5419)" d="M58.6948 31.625C59.3868 31.4542 60.5377 31.5629 61.1637 31.9383C62.1675 32.5401 62.9809 34.1535 63.2167 35.2647C63.4412 36.3221 63.1447 37.3502 62.5598 38.2342C61.8312 39.3354 60.526 39.4992 59.3236 39.7429L58.4045 39.5591C56.4856 39.0434 55.7393 37.4 54.8174 35.8153C55.7899 34.1666 56.8186 32.3473 58.6948 31.625Z"></path><path fill="#CCB088" transform="scale(42.5419 42.5419)" d="M130.747 184.544C131.918 184.489 133.335 184.631 134.413 185.139C134.918 185.377 135.101 186.202 135.272 186.712C135.77 188.195 135.49 189.482 134.779 190.845C134.235 191.888 133.454 192.224 132.375 192.561C131.735 192.701 130.924 192.591 130.317 192.359C129.154 191.916 128.616 190.984 128.164 189.875C127.76 188.886 127.611 187.617 128.048 186.612C128.599 185.343 129.541 184.991 130.747 184.544Z"></path><path fill="#CCB088" transform="scale(42.5419 42.5419)" d="M41.406 201.813C42.4528 201.717 43.5591 201.798 44.5606 202.143C45.4743 202.458 46.2194 203.139 46.6022 204.031C46.9111 204.751 46.8901 205.375 46.6182 206.095C46.4193 206.622 46.2365 207.222 45.9179 207.69C45.2755 208.635 44.1836 208.686 43.1561 208.935C42.4661 209.029 41.581 209.1 40.8959 208.932C40.1671 208.754 39.3094 208.44 38.9116 207.77L38.8483 207.661C38.625 207.285 38.4244 206.917 38.2859 206.5C37.8213 205.1 38.0512 204.144 38.7127 202.875C39.4155 202.199 40.4873 202.048 41.406 201.813Z"></path><path fill="#CCB088" transform="scale(42.5419 42.5419)" d="M46.4295 31.7343C46.6899 31.6736 46.9476 31.63 47.2164 31.6343C48.322 31.6522 49.2012 32.2093 49.9373 32.9837L50.0702 33.125C50.4529 33.5263 50.8078 33.9148 51.0373 34.4278C51.5338 35.5375 51.4968 36.3636 51.0289 37.4579C50.4804 38.7406 49.6088 39.0562 48.4006 39.555C47.4859 39.5629 46.4928 39.6106 45.6089 39.35C44.4492 39.0081 43.6762 38.4976 43.0999 37.4089C42.6638 36.5848 42.6157 35.6153 42.9244 34.74C43.4949 33.1224 44.987 32.4097 46.4295 31.7343Z"></path><path fill="#CCB088" transform="scale(42.5419 42.5419)" d="M361.406 111.125C363.138 110.79 365.431 111.109 367.266 110.974L367.255 165.498L367.353 173.08C367.376 173.751 367.642 175.324 367.474 175.875C367.403 176.109 367.206 176.402 367.092 176.625C365.426 176.957 362.799 176.537 361.038 176.493L360.832 113.25C360.809 112.347 360.764 111.792 361.406 111.125Z"></path><path fill="#CCB088" transform="scale(42.5419 42.5419)" d="M112.248 20.633L112.955 20.625L113.136 21.061C113.391 21.8642 113.154 23.0964 113.124 23.9421L113.033 29.9266L113.022 70.0333L113.074 80.7722C113.098 81.9001 113.474 83.9554 113.228 85C113.184 85.1849 113 85.4479 112.909 85.625C111.248 86.0662 108.935 85.7779 107.188 85.7772L106.375 85.509C106.232 85.3217 106.103 85.1113 106.064 84.875C105.847 83.5665 106.067 81.8916 106.079 80.5548L106.085 71.5847L106.081 36.75L106.091 25.0254C106.085 24.2824 105.819 22.2626 106.052 21.625C106.142 21.378 106.414 21.0443 106.557 20.8134C108.311 20.4419 110.445 20.6478 112.248 20.633Z"></path><path fill="#CCB088" transform="scale(42.5419 42.5419)" d="M83.3133 50.375C85.6096 50.0711 87.9766 50.3833 90.2996 50.1662L90.4033 85.7369L46.9533 85.5401L35.5343 85.5349C33.1275 85.5328 30.6231 85.6458 28.2332 85.3373C25.6468 85.0035 23.3575 84.2797 20.8986 83.4367C19.2176 82.8604 17.4539 82.2794 15.9835 81.2508C13.4387 79.4703 12.3961 76.5857 11.8668 73.625C11.2288 71.0122 11.4134 68.1369 11.5649 65.4739C11.6326 64.2831 11.6439 62.924 12.2722 61.875C13.6772 61.0948 16.2173 61.4846 17.8615 61.4916C18.075 66.2597 16.4288 71.5214 19.7078 75.5341C21.5788 77.8237 26.7502 78.573 29.5144 78.9174C34.8939 79.5877 40.6582 79.3776 46.0833 79.3835L70.8515 79.3639C74.7485 79.3553 78.7828 79.066 82.6549 79.4508L82.6024 51.6025C82.6731 50.8893 82.7848 50.8125 83.3133 50.375Z"></path><path fill="#CCB088" transform="scale(42.5419 42.5419)" d="M173.866 43.375C174.094 43.3238 174.337 43.2791 174.572 43.2881C176.671 43.3684 179.456 44.3078 181.51 44.8761C182.938 45.2711 184.415 45.4514 185.836 45.8921C188.366 46.6765 190.8 47.7562 193.286 48.663C198.558 50.5858 203.739 52.5564 207.737 56.6952C210.941 60.0124 213.163 64.5192 213.903 69.0832C214.752 74.3229 214.021 80.2879 213.941 85.5894L144.648 85.6113C144.285 86.3757 144.418 87.6448 144.331 88.5C144.018 91.5966 142.666 94.2776 140.915 96.7863C139.528 98.7737 138.481 99.4588 136.501 100.806C135.421 101.541 134.403 102.455 133.256 103.079C131.298 104.144 128.743 104.619 126.561 105.006C125.081 105.253 123.677 105.615 122.175 105.351C121.483 104.552 121.324 103.445 121.151 102.431C121.01 101.606 121.063 100.7 121.775 100.125C122.711 99.3693 125.292 99.2099 126.467 98.9061C131.816 97.5235 136.162 93.2623 137.463 87.8348C138.82 82.1693 138.488 76.1009 138.479 70.3119L138.455 55.4616C138.432 54.1834 138.153 52.8846 138.173 51.6231C138.18 51.1834 138.38 50.8848 138.625 50.5356C140.724 49.9811 142.791 50.2464 144.928 50.4295L144.582 79.2813L157.273 79.346C160.775 79.34 164.437 79.0684 167.899 79.5834C166.985 78.2407 166.103 76.9099 165.454 75.4152C162.56 68.7486 163.405 59.4753 168.06 53.7643C169.197 52.3683 171.542 51.0083 172.145 49.4692C171.966 48.6963 171.626 48.0876 171.235 47.4035C171.187 46.8102 171.497 46.16 171.72 45.6147C172.171 44.5116 172.757 43.8446 173.866 43.375ZM179.677 51.375C177.751 52.0839 174.789 53.5086 173.474 55.0742C172.353 56.4089 171.537 58.4738 170.807 60.0539C169.306 63.3005 168.601 66.6727 169.896 70.1708C170.626 72.143 172.611 78.0195 174.498 78.8691C176.067 79.5762 178.343 79.3434 180.054 79.3584C181.48 79.385 185.159 79.8151 186.211 78.8362C187.044 78.062 187.581 75.7795 188.033 74.6857C188.517 73.5154 189.282 72.3369 189.573 71.112C189.998 69.3271 190.179 67.4466 190.185 65.6142C190.196 62.5187 189.042 59.8733 187.813 57.0873C187.473 56.3163 187.072 55.0796 186.49 54.4724C185.427 53.3611 181.568 51.3294 180.05 51.3543L179.788 51.3718L179.677 51.375ZM192.661 53.9448C193.397 55.4021 194.225 56.8641 194.723 58.4235C196.379 63.602 196.052 69.7282 194.378 74.8315C193.822 76.5274 193.143 78.0279 192.138 79.5041L204.562 79.2992L207.259 79.0705C207.474 74.4402 208.153 68.4955 205.961 64.2599C205.463 63.2968 204.623 62.4241 203.896 61.6282C201.624 59.1406 198.578 57.6068 195.713 55.9015C194.677 55.2843 193.737 54.4829 192.661 53.9448Z"></path><path fill="#CCB088" transform="scale(42.5419 42.5419)" d="M343.653 111.142C343.898 111.093 344.148 111.271 344.375 111.373C344.748 112.722 344.462 114.731 344.445 116.17L344.405 125.959L344.688 176.586L335.096 176.179L325.291 176.213C321.648 176.219 317.865 176.213 314.369 175.05C312.425 174.403 310.972 173.311 309.45 171.971L307.475 173.765C305.98 174.952 303.822 175.424 301.98 175.7C295.609 176.656 288.832 176.189 282.388 176.175C278.477 176.167 274.367 176.47 270.486 175.983C269.853 178.73 269.127 182.054 267.261 184.25C266.21 185.486 264.884 187.159 263.589 188.1C262.53 188.868 261.267 189.361 260.163 190.067C258.996 190.813 257.833 191.729 256.55 192.261C253.469 193.538 250.006 193.915 246.727 194.356C245.141 194.57 243.46 194.953 241.875 195.05C240.888 195.11 240.188 195.182 239.442 194.504C238.912 192.653 239.075 191.257 239.496 189.421C241.524 189.281 243.65 189.301 245.651 188.978C249.548 188.348 253.528 186.732 257.114 185.105C258.702 184.384 259.362 183.458 260.503 182.25C262.413 180.227 263.593 179.059 264.59 176.395C257.477 176.031 247.656 177.607 241.48 173.579C237.373 170.899 234.46 168.394 233.472 163.424C232.485 158.456 233.016 151.761 235.911 147.426C238.651 143.324 244.319 140.799 248.985 139.868C254.174 138.832 259.441 139.829 263.842 142.771C264.635 143.373 265.333 144.016 266 144.756C267.001 145.866 268.135 147.095 268.819 148.432C270.021 150.784 270.562 154.054 270.871 156.649C271.44 161.434 271.462 165.781 271.221 170.6L289.925 170.481L298.5 170.268C300.509 170.131 302.672 170.005 304.541 169.179C305.715 168.66 306.866 167.672 307.327 166.447C307.897 164.937 307.942 163.326 307.75 161.75C307.611 160.609 307.518 159.4 307.099 158.321C306.034 155.587 303.187 153.032 301.098 151.073C300 150.044 299.051 148.918 297.833 148.01C296.242 146.825 291.653 144.562 290.981 142.892C290.734 142.277 291.092 141.543 291.34 140.984C292.496 138.373 294.475 136.385 295.934 133.956L299.769 126.875L305.633 117.787C306.232 116.809 307.253 114.325 308.125 113.72C308.393 113.534 308.931 113.411 309.25 113.289C310.731 113.391 312.247 114.423 313.429 115.268C312.481 118.18 311.146 120.017 309.57 122.571L307.03 127.14L304.422 130.999C303.479 132.545 302.75 134.221 301.768 135.75C300.546 137.651 299.187 139.139 298.244 141.234C299.56 142.564 301.117 143.089 302.625 144.102C305.148 145.797 307.36 148.099 309.288 150.427C312.783 154.646 313.852 158.703 313.569 164.165C313.507 165.373 313.18 166.498 313.078 167.684C313.046 168.047 312.912 168.544 313.178 168.822C315.318 171.064 333.745 170.455 337.688 170.499C337.247 167.784 337.522 164.659 337.519 161.889L337.508 145.243L337.506 123.133C337.507 119.274 337.201 115.119 337.719 111.297L343.653 111.142ZM250.155 145.047C245.885 146.67 242.474 147.932 240.402 152.338C239.089 155.126 239.075 160.614 240.168 163.485C241.15 166.065 243.536 168.357 246.082 169.429C248.293 170.361 251.541 170.259 253.937 170.44L264.565 170.467L264.33 158.771C264.225 157.254 264.202 155.536 263.733 154.087C263.001 151.823 261.147 149.247 259.43 147.623C257.579 145.871 254.039 144.802 251.5 144.901L250.155 145.047Z"></path><path fill="#CCB088" transform="scale(42.5419 42.5419)" d="M294.893 47.8461C296.073 47.6908 297.314 47.6398 298.5 47.752C304.124 48.2841 309.163 50.4611 311.681 55.8643C312.961 58.61 313.37 61.7149 313.955 64.6611L315.442 70.6103C316.198 73.6003 316.823 76.116 318.837 78.5612C321.581 79.3503 324.247 79.475 327.086 79.201C329.8 78.9392 332.209 78.2164 333.974 75.9625C335.436 74.0959 335.977 70.7501 336.798 68.4992C337.356 66.9688 338.306 65.4962 339.034 64.0382C339.689 62.727 340.1 61.309 340.769 60C341.566 58.4398 342.743 56.9086 343.871 55.577C346.196 52.8313 351.4 50.3746 354.906 50.1108C359.577 49.7593 364.949 50.5535 368.579 53.7997C373.193 57.9262 375.431 62.6266 375.735 68.7661C375.956 73.2288 374.812 77.0058 371.803 80.3154C370.437 81.8181 369.049 82.4121 367.354 83.4265C366.233 84.0971 365.033 84.9649 363.761 85.2825C361.941 85.7372 359.812 85.7387 357.945 85.8272C352.955 86.0639 348.961 85.2659 344.359 83.3923C341.954 82.4132 340.027 81.5922 338.085 79.8267L337.301 81.125C337.06 81.5054 336.813 81.8523 336.474 82.1541C335.054 83.4184 332.642 85.0713 330.746 85.4071C328.475 85.8091 325.869 85.5573 323.549 85.559L309.003 85.5617L280.234 85.5498C275.086 85.5451 269.852 85.7923 264.717 85.4613C264.558 86.8823 264.151 88.1933 263.615 89.5158C261.604 94.4833 257.492 98.2317 252.674 100.298C250.616 100.943 248.762 102.01 246.733 102.685C243.96 103.608 240.692 104.043 237.796 104.436C236.947 104.551 235.706 104.862 234.875 104.629C234.37 104.487 234.019 104.314 233.782 103.834C233.362 102.984 233.168 100.681 233.473 99.7835C233.566 99.5097 233.607 99.5097 233.863 99.3773C235.285 98.6416 237.737 98.6228 239.329 98.2797C243.304 97.4228 247.673 96.1165 251.285 94.2395C252.358 93.6823 253.159 92.8645 254.098 92.125C255.006 91.4099 256.157 90.752 256.919 89.8832C257.745 88.9419 258.206 86.714 258.591 85.493L245.328 85.5174C241.001 85.4282 234.433 82.9014 231.44 79.698C228.701 76.7665 226.594 71.9228 226.703 67.9081C226.809 64.0211 227.869 61.1975 229.721 57.875C230.389 56.6759 230.992 55.5196 232.013 54.5708C236.632 50.2761 242.081 48.8939 248.233 49.1315C252.154 49.2829 256.492 49.8173 259.294 52.8838C261.267 55.0445 263.328 57.9323 264.268 60.7066C265.417 64.0971 265.235 68.4483 265.182 71.9809L265.113 79.4789C268.462 79.0718 271.948 79.3627 275.32 79.3657L294.877 79.3583L306.415 79.3198C308.171 79.3061 310.5 79.0109 312.166 79.4252L313.25 79.6808L313.434 79.375C312.975 78.3401 312.204 77.4651 311.625 76.4956C310.805 75.1236 309.999 73.1541 309.52 71.631C308.479 68.3226 308.4 64.5035 307.203 61.3324C306.616 59.7799 305.392 58.5379 304.257 57.375C303.304 56.3988 302.308 55.3359 301.073 54.7154C297.578 52.9587 292.014 53.5645 288.278 54.2577C287.179 54.4615 286.165 55.0242 285.125 54.5385C284.685 53.3958 284.701 51.0022 285.184 49.875C285.86 49.2434 286.628 49.2637 287.487 49.0711C289.97 48.5143 292.352 48.0835 294.893 47.8461ZM243.866 54.1229C243.058 54.3069 242.123 54.4825 241.384 54.8627C239.981 55.5848 238.763 57.053 237.541 58.0632C236.89 58.6014 235.952 59.0562 235.503 59.784C233.661 62.7703 232.915 67.6491 233.825 71.0047C234.673 74.1313 236.605 76.1306 239.375 77.7105C242.216 79.3305 245.862 79.2838 249.052 79.3698L258.971 79.2843C258.542 74.5226 258.864 69.9532 258.128 65.1698C257.896 63.6641 257.751 62.1039 257.061 60.724C256.267 59.136 254.462 57.3824 253.094 56.2529C250.349 53.9863 247.241 53.9109 243.866 54.1229ZM357.066 55.8232C353.791 56.2873 349.565 57.9776 347.549 60.7295C345.205 63.9289 343.082 67.3424 341.856 71.1172C341.363 72.6328 340.932 73.8856 341.025 75.5C342.062 76.8748 343.53 77.208 345.096 77.7158C348.18 78.7157 351.265 79.4668 354.443 80.0888C358.954 80.2966 364.605 79.2065 368.051 76.095C369.609 74.6885 370.027 72.9747 370.09 70.9531C370.236 66.2735 368.411 63.0129 365.214 59.6589L364.24 58.7883L364.112 58.6857C362.4 57.3292 359.256 55.9997 357.066 55.8232Z"></path><path fill="#CCB088" transform="scale(42.5419 42.5419)" d="M178.781 134.125L178.879 134.108C179.209 134.046 179.538 134.003 179.875 134.038C181.922 134.255 184.104 135.4 186.131 135.914C196.097 138.444 207.88 140.586 214.838 149.003C216.043 150.461 216.903 152.659 217.477 154.45C218.939 159.017 219.039 163.233 219.028 167.969C219.022 170.863 219.026 173.75 218.784 176.636L105.046 176.152C102.089 175.971 99.6317 175.323 97.625 172.997C96.5458 171.747 95.6341 170.196 95.1986 168.6C94.1832 164.88 94.5092 160.711 94.5324 156.88C94.5519 153.675 94.4617 150.463 94.6678 147.263C94.5304 147.222 94.5092 147.211 94.3448 147.193C92.9632 147.046 91.3409 147.228 89.9451 147.276C86.6778 147.388 82.0944 147.266 79.4006 149.312C75.2937 152.433 75.5162 157.996 75.5196 162.627C75.5228 166.963 75.971 171.798 75.402 176.081C74.8388 180.32 71.7697 185.858 68.3783 188.446C66.1618 190.137 63.8294 191.936 61.267 193.064C59.1495 193.996 56.5201 194.456 54.2412 194.817C49.0126 195.646 43.7407 195.754 38.4766 195.042C30.6816 193.987 24.696 191.393 19.8431 184.956C17.166 181.406 15.4527 174.916 16.0725 170.522C16.4954 167.523 18.441 158.229 20.7279 156.615C21.0489 156.388 21.2204 156.432 21.5944 156.494C22.8203 156.697 25.2201 157.97 25.9358 158.999C26.1806 159.351 26.1568 159.975 26.0128 160.375C25.7665 161.06 25.1843 161.706 24.8585 162.373C24.0865 163.952 23.854 165.835 23.5568 167.551C23.4361 169.98 22.7213 172.455 23.128 174.892C23.7093 178.375 25.662 182.353 28.6727 184.406C29.4756 184.953 30.3999 185.325 31.25 185.792C32.425 186.437 33.5522 187.222 34.8018 187.72C38.7539 189.295 43.0609 189.202 47.237 189.226C49.5794 189.239 52.0073 189.35 54.3084 188.864C56.4117 188.42 58.0854 187.436 59.9759 186.466C61.6499 185.607 63.2928 184.755 64.6526 183.41C66.029 182.049 66.7869 180.224 67.4218 178.436C68.0671 176.618 68.7159 175.023 68.9451 173.083C69.4945 168.436 69.0557 163.348 69.11 158.639C69.1481 155.327 69.3815 151.326 71.2683 148.475L71.4972 148.107C72.3506 146.526 74.7728 144.28 76.3834 143.483C78.3388 142.515 81.1742 141.81 83.3427 141.502C87.7708 140.873 92.5791 141.274 97.0627 141.183C97.8325 141.168 99.6099 140.795 100.237 141.071C100.55 141.209 100.896 141.539 100.999 141.875C101.416 143.244 101.042 146.054 101.018 147.526C100.922 153.214 100.419 159.281 101.073 164.915C101.256 166.486 101.913 168.033 102.49 169.494C107.787 170.864 113.415 170.48 118.858 170.477C128.475 170.472 138.309 170.008 147.875 170.752C147.996 170.202 147.661 169.968 147.349 169.525C146.061 167.693 144.975 165.694 144.416 163.514C143.46 159.785 143.504 155.766 141.638 152.313C140.913 150.97 140.086 149.232 139.058 148.125C138.324 147.335 137.219 146.712 136.286 146.172C135.275 145.587 134.19 144.878 133.075 144.521C130.613 143.734 126.516 144.032 124.043 144.703C122.902 145.012 121.197 145.961 120.066 145.625C119.491 144.481 119.698 142.692 119.781 141.42C119.837 140.565 119.983 140.202 120.625 139.641C122.34 139.357 124.021 138.862 125.729 138.608C129.489 138.048 134.346 138.024 138.014 139.177C140.251 139.881 142.287 141.489 143.804 143.245C145.166 144.821 146.852 147.278 147.532 149.259C148.956 153.411 148.611 158.004 149.772 162.251C150.507 164.943 152.134 167.364 153.418 169.827C155.399 170.481 157.775 170.422 159.852 170.453C164.152 170.516 168.635 170.199 172.907 170.623L169.722 161.634C168.491 157.335 169.362 153.611 170.958 149.545C171.621 147.855 172.376 146.074 173.515 144.644C174.862 142.953 176.656 141.807 177.731 139.875C177.559 139.413 177.342 139.112 177.021 138.75C176.827 138.531 176.827 138.106 176.815 137.812C176.769 136.635 178.03 134.949 178.781 134.125ZM184.45 142.509C181.261 143.598 178.589 145.515 177.065 148.625C174.519 153.817 174.914 159.95 176.839 165.223C177.401 166.76 178.396 169.437 179.942 170.119C181.657 170.876 184.816 170.489 186.705 170.48L191.283 170.45C192.685 167.974 194.429 164.887 195.182 162.168C196.156 158.645 195.821 154.324 194.846 150.821C194.273 148.764 191.845 144.718 189.908 143.674C188.357 142.839 186.184 142.439 184.45 142.509ZM198.081 145.661C198.822 147.062 199.756 148.582 200.227 150.093C200.623 151.365 200.639 152.806 200.75 154.125C201.01 157.21 201.142 160.953 200.215 163.957L198.085 170.5L198.375 170.755L198.578 170.704C199.987 170.37 201.574 170.492 203.019 170.48L210.812 170.438C211.724 170.393 211.983 170.5 212.68 169.875C213.681 164.037 213.754 158.338 210.173 153.223C207.602 149.553 202.346 146.75 198.081 145.661Z"></path></svg>